<?xml version="1.0" encoding="UTF-8"?>
<svg xmlns="http://www.w3.org/2000/svg" width="1200" height="630" viewBox="0 0 1200 630" role="img" aria-labelledby="title description">
  <title id="title">Private Period Tracking: What Stays on Your Phone and Why</title>
  <desc id="description">HerPhase cover with a protective shield representing private on-device period tracking data</desc>
  <defs>
    <linearGradient id="bg" x1="0" y1="0" x2="1" y2="1">
      <stop offset="0" stop-color="#241229"/>
      <stop offset="1" stop-color="#51325a"/>
    </linearGradient>
    <radialGradient id="glow" cx="0" cy="0" r="1" gradientTransform="translate(1010 70) rotate(132) scale(520 640)">
      <stop stop-color="#d4af37" stop-opacity="0.32"/>
      <stop offset="1" stop-color="#d4af37" stop-opacity="0"/>
    </radialGradient>
    <filter id="shadow" x="-20%" y="-20%" width="140%" height="140%">
      <feDropShadow dx="0" dy="16" stdDeviation="22" flood-color="#000000" flood-opacity="0.26"/>
    </filter>
  </defs>
  <rect width="1200" height="630" fill="url(#bg)"/>
  <rect width="1200" height="630" fill="url(#glow)"/>
  <path d="M0 532 C225 456 414 595 650 526 C858 466 1014 414 1200 468 V630 H0 Z" fill="#ffffff" fill-opacity="0.055"/>
  <g filter="url(#shadow)">
      <path d="M936 115 L1080 166 V292 C1080 385 1018 446 936 486 C854 446 792 385 792 292 V166 Z" fill="#ffffff" fill-opacity="0.13" stroke="#ffffff" stroke-opacity="0.34" stroke-width="3"/>
      <path d="M870 292 L919 341 L1018 229" fill="none" stroke="#f6dcea" stroke-width="24" stroke-linecap="round" stroke-linejoin="round"/>
      <circle cx="1060" cy="125" r="31" fill="#d4af37" fill-opacity="0.95"/></g>
  <rect x="76" y="72" width="82" height="7" rx="3.5" fill="#d4af37"/>
  <text x="76" y="128" fill="#f6dcea" font-family="Inter, Helvetica, Arial, sans-serif" font-size="23" font-weight="700" letter-spacing="2.2">WELLNESS GUIDE</text>
  <text x="76" y="242" fill="#ffffff" font-family="Inter, Helvetica, Arial, sans-serif" font-size="49" font-weight="800">Private Period Tracking:</text>
  <text x="76" y="302" fill="#ffffff" font-family="Inter, Helvetica, Arial, sans-serif" font-size="49" font-weight="800">What Stays on Your Phone</text>
  <text x="76" y="362" fill="#ffffff" font-family="Inter, Helvetica, Arial, sans-serif" font-size="49" font-weight="800">and Why</text>
  <text x="76" y="563" fill="#ffffff" fill-opacity="0.78" font-family="Inter, Helvetica, Arial, sans-serif" font-size="25" font-weight="600">HerPhase</text>
  <text x="1124" y="564" fill="#f6dcea" text-anchor="end" font-family="Inter, Helvetica, Arial, sans-serif" font-size="20" font-weight="700">BLOG</text>
</svg>